<svg width="19" height="27" viewBox="0 0 19 27" fill="none" xmlns="http://www.w3.org/2000/svg">
<path fill-rule="evenodd" clip-rule="evenodd" d="M14.1819 6.61921C13.0568 6.61921 12.1455 5.70281 12.1455 4.57181C12.1455 3.44081 13.0568 2.52368 14.1819 2.52368C15.3055 2.52368 16.2175 3.44081 16.2175 4.57181C16.2175 5.70281 15.3055 6.61921 14.1811 6.61921H14.1819ZM14.1819 0.115959C11.7288 0.115959 9.74042 2.11478 9.74042 4.58196C9.73868 5.55482 10.0553 6.50171 10.6422 7.27896L10.9375 7.69003L14.1811 11.6246L17.7208 7.27823C18.3074 6.50087 18.6238 5.55401 18.6219 4.58123C18.6219 2.11478 16.6335 0.115234 14.1811 0.115234L14.1819 0.115959ZM15.8764 20.8655V13.3711H12.587V16.891L9.29969 12.9187L0.145508 23.9793L3.1906 26.5284L9.29969 19.1479L15.4088 26.5284L18.4531 23.9793L15.8764 20.8655Z" fill="#0468FF"/>
</svg>
