<svg width="13" height="13" viewBox="0 0 13 13" fill="none" xmlns="http://www.w3.org/2000/svg">
<path d="M5.94788 3.304C5.94788 3.752 5.87854 4.15467 5.73988 4.512C5.60121 4.864 5.41454 5.16267 5.17988 5.408C4.95054 5.648 4.68121 5.832 4.37188 5.96C4.06788 6.088 3.74521 6.152 3.40388 6.152C3.04654 6.152 2.71321 6.088 2.40388 5.96C2.09454 5.832 1.82521 5.648 1.59588 5.408C1.37188 5.16267 1.19588 4.864 1.06788 4.512C0.939875 4.15467 0.875875 3.752 0.875875 3.304C0.875875 2.84533 0.939875 2.43733 1.06788 2.08C1.19588 1.72267 1.37188 1.42133 1.59588 1.176C1.82521 0.930666 2.09454 0.743999 2.40388 0.615999C2.71321 0.488 3.04654 0.424 3.40388 0.424C3.76654 0.424 4.10254 0.488 4.41188 0.615999C4.72121 0.743999 4.99054 0.930666 5.21988 1.176C5.44921 1.42133 5.62788 1.72267 5.75588 2.08C5.88388 2.43733 5.94788 2.84533 5.94788 3.304ZM4.84388 3.304C4.84388 2.952 4.80654 2.65333 4.73188 2.408C4.65721 2.16267 4.55321 1.96267 4.41988 1.808C4.29188 1.648 4.13988 1.53333 3.96388 1.464C3.78788 1.39467 3.60121 1.36 3.40388 1.36C3.20654 1.36 3.02254 1.39467 2.85188 1.464C2.68121 1.53333 2.53188 1.648 2.40388 1.808C2.27588 1.96267 2.17454 2.16267 2.09988 2.408C2.02521 2.65333 1.98788 2.952 1.98788 3.304C1.98788 3.65067 2.02521 3.94667 2.09988 4.192C2.17454 4.432 2.27588 4.62933 2.40388 4.784C2.53188 4.93333 2.68121 5.04267 2.85188 5.112C3.02254 5.176 3.20654 5.208 3.40388 5.208C3.60121 5.208 3.78788 5.176 3.96388 5.112C4.13988 5.04267 4.29188 4.93333 4.41988 4.784C4.55321 4.62933 4.65721 4.432 4.73188 4.192C4.80654 3.94667 4.84388 3.65067 4.84388 3.304ZM10.0039 0.775999C10.0572 0.711999 10.1185 0.656 10.1879 0.608C10.2625 0.559999 10.3612 0.535999 10.4839 0.535999H11.5159L3.13188 11.768C3.08388 11.8373 3.02254 11.8933 2.94788 11.936C2.87321 11.9787 2.78254 12 2.67588 12H1.62788L10.0039 0.775999ZM12.2919 9.296C12.2919 9.744 12.2225 10.144 12.0839 10.496C11.9452 10.848 11.7585 11.1467 11.5239 11.392C11.2945 11.632 11.0252 11.816 10.7159 11.944C10.4119 12.072 10.0892 12.136 9.74788 12.136C9.38521 12.136 9.04921 12.072 8.73988 11.944C8.43588 11.816 8.16921 11.632 7.93988 11.392C7.71588 11.1467 7.53988 10.848 7.41188 10.496C7.28388 10.144 7.21988 9.744 7.21988 9.296C7.21988 8.83733 7.28388 8.42933 7.41188 8.072C7.53988 7.70933 7.71588 7.40533 7.93988 7.16C8.16921 6.91467 8.43588 6.728 8.73988 6.6C9.04921 6.472 9.38521 6.408 9.74788 6.408C10.1052 6.408 10.4385 6.472 10.7479 6.6C11.0625 6.728 11.3319 6.91467 11.5559 7.16C11.7852 7.40533 11.9639 7.70933 12.0919 8.072C12.2252 8.42933 12.2919 8.83733 12.2919 9.296ZM11.1879 9.296C11.1879 8.944 11.1505 8.64533 11.0759 8.4C11.0012 8.14933 10.8972 7.94667 10.7639 7.792C10.6359 7.63733 10.4839 7.52533 10.3079 7.456C10.1319 7.38667 9.94521 7.352 9.74788 7.352C9.55054 7.352 9.36388 7.38667 9.18788 7.456C9.01721 7.52533 8.86788 7.63733 8.73988 7.792C8.61188 7.94667 8.51054 8.14933 8.43587 8.4C8.36654 8.64533 8.33188 8.944 8.33188 9.296C8.33188 9.64267 8.36654 9.936 8.43587 10.176C8.51054 10.416 8.61188 10.6133 8.73988 10.768C8.86788 10.9173 9.01721 11.0267 9.18788 11.096C9.36388 11.16 9.55054 11.192 9.74788 11.192C9.94521 11.192 10.1319 11.16 10.3079 11.096C10.4839 11.0267 10.6359 10.9173 10.7639 10.768C10.8972 10.6133 11.0012 10.416 11.0759 10.176C11.1505 9.936 11.1879 9.64267 11.1879 9.296Z" fill="#152242"/>
</svg>
