<svg width="16" height="16" viewBox="0 0 16 16" fill="none" xmlns="http://www.w3.org/2000/svg">
<path d="M7.45312 4.95769C7.45312 5.38751 7.3776 5.77972 7.22656 6.13432C7.07552 6.48892 6.875 6.79517 6.625 7.05306C6.375 7.30557 6.08333 7.50168 5.75 7.64137C5.42187 7.78106 5.07812 7.85091 4.71875 7.85091C4.32292 7.85091 3.95833 7.78106 3.625 7.64137C3.29688 7.50168 3.01042 7.30557 2.76562 7.05306C2.52604 6.79517 2.33854 6.48892 2.20312 6.13432C2.06771 5.77972 2 5.38751 2 4.95769C2 4.51175 2.06771 4.1088 2.20312 3.74882C2.33854 3.38348 2.52604 3.07186 2.76562 2.81397C3.01042 2.55608 3.29688 2.35729 3.625 2.2176C3.95833 2.07253 4.32292 2 4.71875 2C5.11458 2 5.47917 2.07253 5.8125 2.2176C6.15104 2.35729 6.4401 2.55608 6.67969 2.81397C6.92448 3.07186 7.11458 3.38348 7.25 3.74882C7.38542 4.1088 7.45312 4.51175 7.45312 4.95769ZM5.59375 4.95769C5.59375 4.68368 5.57031 4.45803 5.52344 4.28073C5.48177 4.09805 5.42187 3.95299 5.34375 3.84553C5.26562 3.73808 5.17187 3.66286 5.0625 3.61988C4.95833 3.5769 4.84375 3.55541 4.71875 3.55541C4.59375 3.55541 4.47917 3.5769 4.375 3.61988C4.27083 3.66286 4.18229 3.73808 4.10938 3.84553C4.03646 3.95299 3.97917 4.09805 3.9375 4.28073C3.89583 4.45803 3.875 4.68368 3.875 4.95769C3.875 5.21558 3.89583 5.43049 3.9375 5.60242C3.97917 5.77435 4.03646 5.91135 4.10938 6.01343C4.18229 6.11551 4.27083 6.18805 4.375 6.23103C4.47917 6.27401 4.59375 6.2955 4.71875 6.2955C4.84375 6.2955 4.95833 6.27401 5.0625 6.23103C5.17187 6.18805 5.26562 6.11551 5.34375 6.01343C5.42187 5.91135 5.48177 5.77435 5.52344 5.60242C5.57031 5.43049 5.59375 5.21558 5.59375 4.95769ZM11.0312 2.48355C11.1094 2.39221 11.2057 2.30893 11.3203 2.23371C11.4349 2.15312 11.5938 2.11283 11.7969 2.11283H13.5625L4.98437 13.5003C4.90625 13.6024 4.80729 13.6884 4.6875 13.7582C4.57292 13.8227 4.43229 13.8549 4.26562 13.8549H2.45312L11.0312 2.48355ZM14 11.0987C14 11.5285 13.9245 11.9234 13.7734 12.2834C13.6224 12.638 13.4219 12.9443 13.1719 13.2021C12.9219 13.4547 12.6302 13.6508 12.2969 13.7905C11.9687 13.9302 11.625 14 11.2656 14C10.8698 14 10.5052 13.9302 10.1719 13.7905C9.84375 13.6508 9.55729 13.4547 9.3125 13.2021C9.07292 12.9443 8.88542 12.638 8.75 12.2834C8.61458 11.9234 8.54687 11.5285 8.54687 11.0987C8.54687 10.6528 8.61458 10.2498 8.75 9.88986C8.88542 9.52451 9.07292 9.21289 9.3125 8.955C9.55729 8.69711 9.84375 8.49832 10.1719 8.35863C10.5052 8.21357 10.8698 8.14103 11.2656 8.14103C11.6615 8.14103 12.026 8.21357 12.3594 8.35863C12.6979 8.49832 12.987 8.69711 13.2266 8.955C13.4714 9.21289 13.6615 9.52451 13.7969 9.88986C13.9323 10.2498 14 10.6528 14 11.0987ZM12.1406 11.0987C12.1406 10.8301 12.1172 10.6071 12.0703 10.4298C12.0286 10.2471 11.9688 10.1021 11.8906 9.99463C11.8125 9.88717 11.7187 9.81195 11.6094 9.76897C11.5052 9.72599 11.3906 9.7045 11.2656 9.7045C11.1406 9.7045 11.026 9.72599 10.9219 9.76897C10.8177 9.81195 10.7292 9.88717 10.6562 9.99463C10.5833 10.1021 10.526 10.2471 10.4844 10.4298C10.4427 10.6071 10.4219 10.8301 10.4219 11.0987C10.4219 11.3566 10.4427 11.5715 10.4844 11.7435C10.526 11.9154 10.5833 12.0524 10.6562 12.1545C10.7292 12.2565 10.8177 12.3291 10.9219 12.3721C11.026 12.415 11.1406 12.4365 11.2656 12.4365C11.3906 12.4365 11.5052 12.415 11.6094 12.3721C11.7187 12.3291 11.8125 12.2565 11.8906 12.1545C11.9688 12.0524 12.0286 11.9154 12.0703 11.7435C12.1172 11.5715 12.1406 11.3566 12.1406 11.0987Z" fill="#0468FF"/>
</svg>
