<svg width="16" height="16" viewBox="0 0 16 16" fill="none" xmlns="http://www.w3.org/2000/svg">
<g clip-path="url(#clip0_0_836)">
<path d="M10.8092 11.6623C10.1065 11.6623 9.53476 11.0905 9.53476 10.3878V8.37549C9.53476 7.67279 10.1065 7.10103 10.8092 7.10103H15.5776V4.97496C15.5776 4.1982 14.9457 3.56634 14.169 3.56634H13.2127L12.9593 1.96302C12.9398 1.83942 12.8694 1.72959 12.7652 1.66037C12.661 1.59115 12.5325 1.56888 12.4109 1.59857L11.3426 1.86124L10.9615 1.05847C10.9093 0.94855 10.8145 0.864569 10.699 0.826023C10.5835 0.787476 10.4574 0.797761 10.3496 0.854284L5.18549 3.56634H1.40861C0.631864 3.56634 0 4.1982 0 4.97496V13.7884C0 14.5652 0.631864 15.197 1.40861 15.197H14.169C14.9457 15.197 15.5776 14.5652 15.5776 13.7884V11.6623H10.8092V11.6623ZM12.152 2.58326L12.3074 3.56634H12.152L11.7342 2.68602L12.152 2.58326ZM10.3533 1.86259L11.162 3.56634H7.10908L10.3533 1.86259ZM10.8092 7.99539H15.62C15.8295 7.99539 16.0001 8.16594 16.0001 8.37549V10.3878C16.0001 10.5973 15.8295 10.7679 15.62 10.7679H10.8092C10.5997 10.7679 10.4291 10.5973 10.4291 10.3878V8.37549C10.4291 8.16594 10.5997 7.99539 10.8092 7.99539Z" fill="#0468FF"/>
</g>
<defs>
<clipPath id="clip0_0_836">
<rect width="16" height="16" fill="white"/>
</clipPath>
</defs>
</svg>
