<svg width="16" height="16" viewBox="0 0 16 16" fill="none" xmlns="http://www.w3.org/2000/svg">
<g clip-path="url(#clip0_0_872)">
<path d="M13.6569 2.34313C12.1458 0.832156 10.1369 0 8 0C5.86312 0 3.85416 0.832156 2.34313 2.34313C0.832156 3.85413 0 5.86312 0 8C0 10.1369 0.832156 12.1459 2.34313 13.6569C3.85416 15.1678 5.86312 16 8 16C10.1369 16 12.1458 15.1678 13.6569 13.6569C15.1678 12.1459 16 10.1369 16 8C16 5.86312 15.1678 3.85413 13.6569 2.34313ZM8 13.9583C4.71456 13.9583 2.04166 11.2854 2.04166 8C2.04166 4.71456 4.71456 2.04169 8 2.04169C11.2854 2.04169 13.9583 4.71456 13.9583 8C13.9583 11.2854 11.2854 13.9583 8 13.9583Z" fill="#0468FF"/>
<path d="M7.99999 2.97919C5.23149 2.97919 2.97915 5.23153 2.97915 8.00004C2.97915 9.26779 3.45168 10.4271 4.22955 11.3117C4.5259 10.1657 5.33231 9.22276 6.39106 8.74042C5.84596 8.28123 5.49877 7.59423 5.49877 6.82738C5.49877 5.44819 6.6208 4.32616 7.99999 4.32616C9.37918 4.32616 10.5012 5.44819 10.5012 6.82738C10.5012 7.59423 10.154 8.28123 9.60893 8.74042C10.6677 9.22276 11.4741 10.1657 11.7704 11.3117C12.5483 10.4271 13.0208 9.26779 13.0208 8.00004C13.0208 5.2315 10.7685 2.97919 7.99999 2.97919Z" fill="#0468FF"/>
<path d="M8.00006 8.39108C8.86368 8.39108 9.56378 7.69098 9.56378 6.82736C9.56378 5.96374 8.86368 5.26364 8.00006 5.26364C7.13644 5.26364 6.43634 5.96374 6.43634 6.82736C6.43634 7.69098 7.13644 8.39108 8.00006 8.39108Z" fill="#0468FF"/>
<path d="M7.99996 9.32965C6.44527 9.32965 5.16708 10.5359 5.05199 12.0616C5.8804 12.6645 6.89927 13.0208 7.99996 13.0208C9.10065 13.0208 10.1195 12.6645 10.9479 12.0616C10.8328 10.5359 9.55465 9.32965 7.99996 9.32965Z" fill="#0468FF"/>
</g>
<defs>
<clipPath id="clip0_0_872">
<rect width="16" height="16" fill="white"/>
</clipPath>
</defs>
</svg>
