<svg width="16" height="16" viewBox="0 0 16 16" fill="none" xmlns="http://www.w3.org/2000/svg">
<g clip-path="url(#clip0_0_940)">
<path d="M11.75 3.75C11.2322 3.75 10.8125 3.33028 10.8125 2.8125V0.9375C10.8125 0.419719 11.2322 0 11.75 0C12.2678 0 12.6875 0.419719 12.6875 0.9375V2.8125C12.6875 3.33028 12.2678 3.75 11.75 3.75Z" fill="#0468FF"/>
<path d="M14.2812 1.875H13.625V2.8125C13.625 3.84637 12.7839 4.6875 11.75 4.6875C10.7161 4.6875 9.875 3.84637 9.875 2.8125V1.875H6.125V2.8125C6.125 3.84637 5.28387 4.6875 4.25 4.6875C3.21613 4.6875 2.375 3.84637 2.375 2.8125V1.875H1.71875C0.771031 1.875 0 2.64603 0 3.59375V5.6875H16V3.59375C16 2.64603 15.229 1.875 14.2812 1.875Z" fill="#0468FF"/>
<path d="M4.25 3.75C3.73222 3.75 3.3125 3.33028 3.3125 2.8125V0.9375C3.3125 0.419719 3.73222 0 4.25 0C4.76778 0 5.1875 0.419719 5.1875 0.9375V2.8125C5.1875 3.33028 4.76778 3.75 4.25 3.75Z" fill="#0468FF"/>
<path d="M10.4566 10.056V11.784H8.81663L10.4966 9.444C10.4833 9.556 10.4726 9.664 10.4646 9.768C10.4593 9.86933 10.4566 9.96533 10.4566 10.056Z" fill="#0468FF"/>
<path fill-rule="evenodd" clip-rule="evenodd" d="M16 7H0V14C0 15.1046 0.895431 16 2 16H14C15.1046 16 16 15.1046 16 14V7ZM7.168 14V13.188H6.164V8.192H5.256L3.472 9.704L3.82 10.172C3.83867 10.196 3.86533 10.22 3.9 10.244C3.93467 10.2653 3.97467 10.2813 4.02 10.292C4.06533 10.3 4.11333 10.2987 4.164 10.288C4.21467 10.2773 4.26667 10.252 4.32 10.212L5.08 9.58C5.07467 9.65467 5.07067 9.728 5.068 9.8C5.06533 9.872 5.064 9.94267 5.064 10.012V13.188H3.912V14H7.168ZM12.0886 12.408V11.784H11.4166V8.192H10.3686L7.64862 11.836L7.76463 12.388C7.77796 12.4573 7.81262 12.5133 7.86863 12.556C7.92729 12.5987 7.99129 12.62 8.06063 12.62H10.4566V14H11.4166V12.62H11.8686C11.938 12.62 11.9913 12.6 12.0286 12.56C12.0686 12.5173 12.0886 12.4667 12.0886 12.408Z" fill="#0468FF"/>
</g>
<defs>
<clipPath id="clip0_0_940">
<rect width="16" height="16" fill="white"/>
</clipPath>
</defs>
</svg>
