<svg width="16" height="16" viewBox="0 0 16 16" fill="none" xmlns="http://www.w3.org/2000/svg">
<g clip-path="url(#clip0_0_791)">
<path d="M11.6732 4.08259C12.5894 4.08259 13.3321 3.33987 13.3321 2.42368C13.3321 1.50749 12.5894 0.764771 11.6732 0.764771C10.757 0.764771 10.0143 1.50749 10.0143 2.42368C10.0143 3.33987 10.757 4.08259 11.6732 4.08259Z" fill="white"/>
<path d="M15.9006 9.10963L13.3475 4.7274C13.2252 4.51748 12.9769 4.36912 12.7898 4.36912C12.7449 4.36912 10.6614 4.36912 10.6166 4.36912C10.4294 4.36912 10.1811 4.51748 10.0588 4.7274L8.13523 8.02912L5.99988 4.3639C5.86397 4.13058 5.61857 4.00125 5.3666 4.00171C5.36198 4.00143 5.3574 4.00101 5.35271 4.00101H3.29972C3.29503 4.00101 3.29045 4.00143 3.28583 4.00171C3.03386 4.00122 2.7885 4.13055 2.65255 4.3639L0.0994348 8.7461C-0.103656 9.09465 0.0143004 9.54184 0.362851 9.74493C0.478533 9.81232 0.605027 9.84434 0.729876 9.84434C0.98129 9.84434 1.22599 9.71438 1.36168 9.48151L2.48778 7.54862V8.37617L1.9838 12.0078C1.94135 12.3137 2.17898 12.5866 2.48781 12.5866V14.8095C2.48781 15.2274 2.81281 15.5834 3.23047 15.5982C3.66899 15.6138 4.02943 15.263 4.02943 14.8279V12.5865H4.63843V14.8094C4.63843 15.2274 4.96343 15.5834 5.38116 15.5982C5.81967 15.6138 6.18001 15.2629 6.18001 14.8279V12.5865C6.48885 12.5865 6.72647 12.3136 6.68403 12.0077L6.18001 8.37603V7.57507L7.29064 9.48144C7.32843 9.54625 7.59066 10.0044 7.76908 10.1084C7.88476 10.1757 8.01126 10.2078 8.13611 10.2078C8.38752 10.2078 8.63222 10.0779 8.76791 9.84497L9.86227 7.96652L9.85174 14.4319C9.85174 14.8576 10.1968 15.2027 10.6225 15.2027C10.6243 15.2027 10.626 15.2024 10.6278 15.2024C10.6296 15.2024 10.6313 15.2027 10.6331 15.2027C11.0588 15.2027 11.4039 14.8576 11.4039 14.4319L11.3934 10.5308C11.3934 10.3686 11.5157 10.227 11.6776 10.2165C11.8549 10.205 12.0023 10.3455 12.0023 10.5203V14.4134C12.0023 14.8313 12.3274 15.1873 12.745 15.2022C13.1835 15.2178 13.544 14.8669 13.544 14.4319V7.96656L14.6383 9.84501C14.774 10.0779 15.0187 10.2078 15.2701 10.2078C15.395 10.2078 15.5215 10.1758 15.6372 10.1084C15.9857 9.90533 16.1037 9.45814 15.9006 9.10963Z" fill="white"/>
<path d="M1.73352 3.68615L2.14414 3.64955C2.38027 3.62852 2.54668 3.40779 2.50046 3.17524C2.42999 2.81986 2.40563 2.32666 2.70068 2.02167C2.70037 2.03451 2.6997 2.04725 2.6997 2.06013C2.6997 2.97627 3.44243 3.719 4.35858 3.719C5.27469 3.719 6.01742 2.97627 6.01742 2.06013C6.01742 2.04725 6.01676 2.03451 6.01641 2.02167C6.31149 2.32669 6.2871 2.81986 6.21659 3.17524C6.17047 3.40779 6.33682 3.62852 6.57295 3.64955L6.98354 3.68615C7.20059 3.7055 7.39297 3.54755 7.41621 3.33088C7.47272 2.80478 7.46288 2.01548 7.16535 1.70206C6.72617 1.23944 6.183 1.23475 5.83211 1.29854C5.55616 0.765651 5.00011 0.401215 4.35861 0.401215C3.71712 0.401215 3.16103 0.765616 2.88505 1.29854C2.53419 1.23478 1.99092 1.23944 1.55181 1.70206C1.25434 2.01548 1.24451 2.80482 1.30088 3.33088C1.32415 3.54755 1.5165 3.7055 1.73352 3.68615Z" fill="white"/>
</g>
<defs>
<clipPath id="clip0_0_791">
<rect width="16" height="16" fill="white"/>
</clipPath>
</defs>
</svg>
