<svg width="16" height="16" viewBox="0 0 16 16" fill="none" xmlns="http://www.w3.org/2000/svg">
<g clip-path="url(#clip0_0_800)">
<path d="M2.375 6.59375H0.46875C0.209656 6.59375 0 6.80341 0 7.0625C0 7.32159 0.209656 7.53125 0.46875 7.53125H2.375C2.63409 7.53125 2.84375 7.32159 2.84375 7.0625C2.84375 6.80341 2.63409 6.59375 2.375 6.59375Z" fill="white"/>
<path d="M14.5625 6.59375H12.6875C12.4284 6.59375 12.2188 6.80341 12.2188 7.0625C12.2188 7.32159 12.4284 7.53125 12.6875 7.53125H14.5625C14.8216 7.53125 15.0312 7.32159 15.0312 7.0625C15.0312 6.80341 14.8216 6.59375 14.5625 6.59375Z" fill="white"/>
<path d="M12.8344 1.75933C12.6513 1.57624 12.3547 1.57624 12.1716 1.75933L10.8459 3.08502C10.6628 3.26811 10.6628 3.56477 10.8459 3.74786C11.029 3.93095 11.3257 3.93095 11.5087 3.74786L12.8344 2.42217C13.0175 2.23908 13.0175 1.94242 12.8344 1.75933Z" fill="white"/>
<path d="M4.21659 3.08502L2.89091 1.75933C2.70781 1.57624 2.41116 1.57624 2.22806 1.75933C2.04497 1.94242 2.04497 2.23908 2.22806 2.42217L3.55375 3.74786C3.73684 3.93095 4.0335 3.93095 4.21659 3.74786C4.39968 3.56477 4.39968 3.26811 4.21659 3.08502Z" fill="white"/>
<path d="M7.53125 0C7.27216 0 7.0625 0.209656 7.0625 0.46875V2.375C7.0625 2.63409 7.27216 2.84375 7.53125 2.84375C7.79034 2.84375 8 2.63409 8 2.375V0.46875C8 0.209656 7.79034 0 7.53125 0Z" fill="white"/>
<path d="M7.45486 9.61069C7.4553 9.61132 7.45583 9.61185 7.45627 9.61247C7.43929 9.58696 7.43961 9.58752 7.45486 9.61069Z" fill="white"/>
<path d="M7.45485 9.61069C7.2667 9.34076 6.85585 9.34129 6.66879 9.61247L4.61567 12.7062L3.68754 11.4688C3.50004 11.2156 3.12501 11.2156 2.93751 11.4688L0.0937602 15.25C-0.00936476 15.3906 -0.0281148 15.5781 0.0468852 15.7375C0.13126 15.8969 0.290635 16 0.46876 16H11.6844C11.6255 15.9115 7.69332 9.97251 7.45485 9.61069Z" fill="white"/>
<path d="M7.53125 3.78125C5.46353 3.78125 3.78125 5.46353 3.78125 7.53125C3.78125 8.63978 4.26762 9.64656 5.05978 10.3417L5.88788 9.09406C6.16069 8.69856 6.5965 8.47103 7.0625 8.47103C7.15869 8.47103 7.25225 8.48653 7.34459 8.50531L8.70084 6.46788C8.96406 6.08016 9.40122 5.85309 9.875 5.85309C10.3488 5.85309 10.7859 6.08016 11.0441 6.461L11.1617 6.63753C10.7581 5.00209 9.28947 3.78125 7.53125 3.78125Z" fill="white"/>
<path d="M15.9149 15.2687L10.2687 6.98747C10.0906 6.725 9.65938 6.725 9.48125 6.98747L8.14835 8.99013C8.34188 9.22422 9.50366 11.0452 12.8097 16H15.5305C15.6993 16 15.8586 15.9062 15.943 15.7562C16.0274 15.5969 16.018 15.4187 15.9149 15.2687Z" fill="white"/>
</g>
<defs>
<clipPath id="clip0_0_800">
<rect width="16" height="16" fill="white"/>
</clipPath>
</defs>
</svg>
