<svg width="16" height="16" viewBox="0 0 16 16" fill="none" xmlns="http://www.w3.org/2000/svg">
<path fill-rule="evenodd" clip-rule="evenodd" d="M13.363 12.2399L14.7298 2.66003C14.7865 2.26238 14.6851 1.86633 14.444 1.54499C14.2028 1.22369 13.851 1.01545 13.4533 0.958719L6.84075 0.0152418C6.76995 0.00509804 6.69806 0 6.62689 0C5.88402 0 5.24451 0.555294 5.13928 1.29174L4.88255 3.09148L2.48493 3.41804C2.10857 3.46928 1.77479 3.66403 1.54496 3.96633C1.31515 4.26868 1.21677 4.64243 1.26804 5.01872L2.59612 14.77C2.6917 15.4712 3.29672 16 4.0036 16C4.06775 16 4.13272 15.9956 4.19675 15.9868L10.9781 15.0632C11.3545 15.012 11.6883 14.8172 11.9181 14.5149C12.1416 14.2209 12.2396 13.8592 12.1977 13.4934C12.7961 13.3602 13.2736 12.8663 13.363 12.2399ZM13.3504 1.68055C13.5553 1.70978 13.7365 1.81702 13.8607 1.98261C13.9849 2.14813 14.0373 2.35221 14.0081 2.55715L12.6412 12.1371C12.5982 12.4388 12.3806 12.6813 12.1005 12.7675L10.8781 3.79286L10.878 3.79257L10.8669 3.71142C10.7715 3.01017 10.1664 2.48133 9.45944 2.48133C9.39534 2.48133 9.33032 2.4857 9.26629 2.49446L7.40477 2.74797L5.63369 2.98918L5.86117 1.39474C5.91528 1.01529 6.24454 0.729124 6.62689 0.729124C6.6637 0.729124 6.70098 0.731817 6.73779 0.737072L13.3504 1.68055ZM6.31788 7.07194L6.1855 7.27862C6.05276 7.21348 5.9054 7.17568 5.75166 7.17148L5.91514 6.91627C5.80275 6.8188 5.72378 6.68192 5.70212 6.52332L5.64485 6.1041L6.06406 6.04684L6.00298 5.59967L6.42219 5.54241L6.48328 5.98957L6.90249 5.9323L6.95976 6.35151C6.98143 6.51012 6.94206 6.66316 6.85994 6.7872L7.08588 6.98922C6.9389 7.03449 6.80707 7.11043 6.69666 7.20879L6.51371 7.04519C6.48246 7.05457 6.45014 7.06169 6.41684 7.06624C6.38354 7.07079 6.35049 7.07259 6.31788 7.07194ZM8.58134 8.3103C8.30142 8.50156 8.15514 8.83328 8.19965 9.17581L8.40725 10.6955C8.56271 10.7206 8.72328 10.7227 8.8844 10.7007C8.94127 10.693 8.99831 10.6822 9.0552 10.6683C9.58597 10.5388 9.997 10.158 10.1547 9.64964C10.2741 9.2648 10.3068 8.86604 10.2518 8.46401L10.0912 7.28798L8.58134 8.3103ZM5.0145 11.2294C5.17562 11.2074 5.32973 11.1623 5.47275 11.0963L5.26516 9.57668C5.21617 9.23477 4.98628 8.95444 4.66442 8.84496L2.9366 8.26535L3.09725 9.44138C3.15217 9.84341 3.29057 10.2188 3.5088 10.5575C3.7971 11.005 4.29521 11.2616 4.84126 11.2439C4.89979 11.2421 4.95748 11.2372 5.0145 11.2294ZM6.40767 8.56212L5.56924 8.67665L5.54061 8.46705L5.12139 8.52431L5.09276 8.31471C5.04539 7.96798 5.28895 7.64735 5.63568 7.59999C5.98241 7.55262 6.30304 7.79617 6.3504 8.1429L6.40767 8.56212ZM6.76962 8.08564L6.82688 8.50485L7.66531 8.39032L7.63668 8.18071L8.05589 8.12344L8.02726 7.91383C7.97989 7.5671 7.65927 7.32355 7.31254 7.37091C6.9658 7.41828 6.72225 7.7389 6.76962 8.08564ZM7.17049 11.0201L7.23067 11.4607C7.7241 11.493 8.14053 11.869 8.20936 12.3728L8.23799 12.5825L6.14192 12.8688L6.11329 12.6592C6.04443 12.1551 6.34491 11.6813 6.81146 11.5179L6.75128 11.0774L7.17049 11.0201ZM8.03757 11.1153L8.00892 10.9056L7.5897 10.9629L7.6091 11.1048C7.86687 11.1871 8.0951 11.3385 8.2712 11.5377C8.40977 11.559 8.54026 11.6243 8.6405 11.7256L9.07825 12.1687L9.37926 11.8714L8.94151 11.4283C8.70642 11.1901 8.36927 11.0739 8.03757 11.1153ZM6.33206 11.1347L6.35146 11.2766C6.11929 11.4288 5.93929 11.6428 5.8297 11.8712C5.70193 11.9289 5.59374 12.0268 5.52435 12.1513L5.22148 12.6956L4.85175 12.4899L5.15462 11.9456C5.31721 11.6531 5.61084 11.4507 5.9415 11.4017L5.91285 11.1919L6.33206 11.1347ZM5.85558 10.7727L7.95165 10.4864L7.72258 8.80953L5.62651 9.09587L5.85558 10.7727ZM6.5413 9.54028L6.96051 9.48302L7.01778 9.90223L6.59856 9.9595L6.5413 9.54028Z" fill="#0468FF"/>
</svg>
