<svg width="16" height="16" viewBox="0 0 16 16" fill="none" xmlns="http://www.w3.org/2000/svg">
<g clip-path="url(#clip0_0_988)">
<path d="M14.9999 6.49557C14.9998 6.33988 14.9945 6.18498 14.9843 6.03108C14.2756 6.03108 1.38141 6 1.00002 6C1.01511 6.04409 1.15083 6.9148 1.93868 9.1208C2.22655 9.92687 3.13218 10.4685 4.19221 10.4685H5.80782L5.37021 11.5624C4.00675 11.3324 2.78156 12.389 2.78156 13.7496C2.78156 14.9803 3.77816 15.9995 5.00025 15.9995C6.07437 15.9995 6.95816 15.2171 7.16953 14.2183H8.83082C8.91876 14.6338 9.12269 15.018 9.42724 15.33C10.2989 16.2232 11.7011 16.2235 12.573 15.33C12.9894 14.9033 13.2188 14.342 13.2188 13.7496C13.2188 12.3887 11.9934 11.3325 10.6301 11.5624L10.1925 10.4685H11.8081C12.867 10.4685 13.7718 9.92803 14.0607 9.12343C15.0288 6.50579 14.9999 6.61691 14.9999 6.49557ZM8.83167 13.2809H7.16865C7.04609 12.7135 6.70629 12.226 6.24052 11.9108L6.81754 10.4685H9.18278L9.7598 11.9108C9.29403 12.226 8.95419 12.7135 8.83167 13.2809Z" fill="#0468FF"/>
<path d="M14.858 5.0936C14.2798 2.27043 11.927 0 9.00007 0H8.2501C8.04807 0 7.86876 0.129434 7.8052 0.321209L6.22263 5.0936H14.858Z" fill="#0468FF"/>
</g>
<defs>
<clipPath id="clip0_0_988">
<rect width="16" height="16" fill="white"/>
</clipPath>
</defs>
</svg>
