<svg width="16" height="16" viewBox="0 0 16 16" fill="none" xmlns="http://www.w3.org/2000/svg">
<path fill-rule="evenodd" clip-rule="evenodd" d="M11.0702 3.92256C10.4037 3.92256 9.8636 3.37924 9.8636 2.70912C9.8636 2.03879 10.4037 1.49557 11.0702 1.49557C11.7365 1.49557 12.2768 2.03879 12.2768 2.70912C12.2768 3.37924 11.7365 3.92256 11.0702 3.92256ZM11.0702 0.068573C9.61678 0.068573 8.43867 1.25341 8.43867 2.7152C8.43867 3.21367 8.57599 3.68008 8.81447 4.07806C8.86312 4.15949 8.9161 4.23797 8.97299 4.31331L9.14769 4.55705L11.0702 6.88859L13.1677 4.313C13.5026 3.86891 13.7016 3.31542 13.7016 2.7152C13.7016 1.25341 12.5235 0.068573 11.0702 0.068573Z" fill="white"/>
<path fill-rule="evenodd" clip-rule="evenodd" d="M12.0751 12.3649V7.92349H10.1258V10.0095L8.17756 7.65564L2.7529 14.2099L4.5574 15.7205L8.17756 11.3465L11.7976 15.7205L13.6021 14.2099L12.0751 12.3649Z" fill="white"/>
</svg>
