<svg width="16" height="16" viewBox="0 0 16 16" fill="none" xmlns="http://www.w3.org/2000/svg">
<path d="M13.3438 5.34375V4H2.65625V5.34375H13.3438ZM13.3438 12V8H2.65625V12H13.3438ZM13.3438 2.65625C13.7188 2.65625 14.0312 2.79167 14.2812 3.0625C14.5312 3.3125 14.6562 3.625 14.6562 4V12C14.6562 12.375 14.5312 12.6979 14.2812 12.9688C14.0312 13.2188 13.7188 13.3438 13.3438 13.3438H2.65625C2.28125 13.3438 1.96875 13.2188 1.71875 12.9688C1.46875 12.6979 1.34375 12.375 1.34375 12V4C1.34375 3.625 1.46875 3.3125 1.71875 3.0625C1.96875 2.79167 2.28125 2.65625 2.65625 2.65625H13.3438Z" fill="#0468FF"/>
</svg>
