<svg width="16" height="16" viewBox="0 0 16 16" fill="none" xmlns="http://www.w3.org/2000/svg">
<g clip-path="url(#clip0_0_916)">
<path d="M15.0808 8.2168L15.0784 8.21689V8.03918C15.0784 7.33445 14.5071 6.76312 13.8024 6.76312C13.0977 6.76312 12.5263 7.33445 12.5263 8.03918V6.63551C12.5263 5.93078 11.955 5.35945 11.2503 5.35945C10.5455 5.35945 9.9742 5.93078 9.9742 6.63551V5.35945C9.9742 4.65473 9.36033 4.08339 8.6556 4.08339C7.95088 4.08339 7.34007 4.69726 7.34007 5.40199L7.33701 1.27606C7.33701 0.571334 6.76568 0 6.06095 0C5.35623 0 4.78489 0.571334 4.78489 1.27606V9.54918C4.78489 9.54918 3.4794 5.62887 1.64264 6.56286C1.00052 6.88936 0.731956 7.66427 1.05114 8.31021L3.42555 13.1153C3.42555 13.1153 4.89319 16 7.45271 16H10.8555C13.2047 16 15.0835 14.0956 15.0835 11.7465L15.0808 8.2168Z" fill="#0468FF"/>
</g>
<defs>
<clipPath id="clip0_0_916">
<rect width="16" height="16" fill="white"/>
</clipPath>
</defs>
</svg>
