<svg width="16" height="16" viewBox="0 0 16 16" fill="none" xmlns="http://www.w3.org/2000/svg">
<path d="M1.45454 3.48267L3.35575 6.946V9.05853L1.45677 12.5151L1.45454 3.48267Z" fill="#0468FF"/>
<path d="M8.75438 5.68573L10.5359 4.57293L14.1818 4.56947L8.75438 7.958V5.68573Z" fill="#0468FF"/>
<path d="M8.74432 3.46227L8.75439 8.0476L6.84874 6.85427V0L8.74432 3.46227Z" fill="#0468FF"/>
<path d="M14.1818 4.56947L10.5359 4.57293L8.74432 3.46227L6.84874 0L14.1818 4.56947Z" fill="#0468FF"/>
<path d="M8.75439 12.5343V10.3096L6.84874 9.13893L6.84979 16L8.75439 12.5343Z" fill="#0468FF"/>
<path d="M10.5314 11.4316L3.35575 6.946L1.45454 3.48267L14.1741 11.4271L10.5314 11.4316Z" fill="#0468FF"/>
<path d="M6.84996 16L8.75439 12.5343L10.5314 11.4316L14.1741 11.4271L6.84996 16Z" fill="#0468FF"/>
<path d="M1.45677 12.5151L6.86433 9.13906L5.04633 8.00226L3.35575 9.05853L1.45677 12.5151Z" fill="#0468FF"/>
</svg>
