<svg width="16" height="16" viewBox="0 0 16 16" fill="none" xmlns="http://www.w3.org/2000/svg">
<path fill-rule="evenodd" clip-rule="evenodd" d="M11 0H13V2H13.4C13.9601 2 14.2401 2 14.454 2.10899C14.6422 2.20487 14.7951 2.35785 14.891 2.54601C15 2.75992 15 3.03995 15 3.6V13.4C15 13.9601 15 14.2401 14.891 14.454C14.7951 14.6422 14.6422 14.7951 14.454 14.891C14.2401 15 13.9601 15 13.4 15H2.6C2.03995 15 1.75992 15 1.54601 14.891C1.35785 14.7951 1.20487 14.6422 1.10899 14.454C1 14.2401 1 13.9601 1 13.4V3.6C1 3.03995 1 2.75992 1.10899 2.54601C1.20487 2.35785 1.35785 2.20487 1.54601 2.10899C1.75992 2 2.03995 2 2.6 2H3V0H5V2H11V0ZM13 6H3V13H13V6ZM8 7H4V10H8V7Z" fill="#0468FF"/>
</svg>
